<?xml version="1.0" standalone="no"?>
<!DOCTYPE svg PUBLIC "-//W3C//DTD SVG 20010904//EN"
 "http://www.w3.org/TR/2001/REC-SVG-20010904/DTD/svg10.dtd">
<svg version="1.0" xmlns="http://www.w3.org/2000/svg"
 width="570.000000pt" height="566.000000pt" viewBox="0 0 570.000000 566.000000"
 preserveAspectRatio="xMidYMid meet">
<metadata>
Created by potrace 1.16, written by Peter Selinger 2001-2019
</metadata>
<g transform="translate(0.000000,566.000000) scale(0.100000,-0.100000)"
fill="#000000" stroke="none">
<path d="M2585 5584 c-36 -74 -39 -104 -11 -104 8 0 46 -30 84 -67 77 -75 133
-174 173 -304 32 -104 33 -317 2 -434 -11 -44 -35 -134 -53 -200 -45 -170 -51
-197 -45 -203 9 -9 203 -81 373 -137 150 -50 152 -53 77 -90 -22 -11 -53 -32
-69 -47 -17 -16 -33 -28 -37 -28 -26 0 -139 -147 -176 -230 -23 -51 -48 -138
-41 -145 2 -2 43 -11 91 -18 l86 -14 7 31 c27 126 145 262 276 320 59 26 171
56 209 56 13 0 29 4 35 8 12 7 39 170 30 179 -4 5 -221 81 -406 142 -36 12
-73 26 -82 32 -10 5 -23 9 -29 9 -7 0 -39 10 -71 22 l-60 21 7 36 c3 20 12 56
19 81 14 48 25 86 51 190 9 36 21 79 26 96 5 17 9 40 9 52 0 11 5 24 10 27 6
3 10 19 10 36 0 16 4 37 9 47 9 17 60 209 66 249 2 11 8 36 13 55 11 34 23 79
43 163 6 28 20 77 30 109 11 33 17 62 14 65 -3 3 -43 15 -89 26 l-83 22 -12
-46 c-7 -25 -19 -71 -27 -101 -8 -30 -19 -73 -25 -95 -20 -80 -34 -119 -44
-122 -6 -2 -21 20 -35 48 -52 112 -139 217 -235 288 -79 59 -78 59 -120 -25z"/>
<path d="M5628 4879 c-10 -5 -18 -7 -18 -3 0 3 -6 2 -13 -4 -7 -6 -33 -16 -57
-22 -25 -6 -52 -12 -60 -15 -21 -5 -329 -115 -365 -130 -64 -26 -90 -35 -99
-34 -5 0 -12 -3 -15 -8 -3 -5 -37 -22 -76 -37 -75 -31 -305 -144 -395 -194
-30 -16 -75 -41 -99 -53 -25 -13 -50 -27 -55 -32 -6 -4 -69 -43 -140 -88 -150
-93 -235 -149 -256 -167 -8 -8 -53 -42 -100 -76 -103 -75 -258 -198 -299 -237
-9 -8 -61 -55 -116 -104 -103 -91 -209 -195 -203 -200 3 -2 125 44 185 71 40
18 164 65 178 68 6 1 20 7 32 14 21 12 144 60 228 89 22 7 49 17 60 22 11 5
52 21 90 36 39 15 81 32 95 38 14 5 30 12 35 13 6 2 69 26 140 54 72 29 148
58 170 65 42 14 176 66 235 91 108 47 162 68 173 66 4 -1 7 3 7 8 0 6 5 10 11
10 16 0 207 84 331 146 129 64 304 174 367 230 66 59 96 123 96 204 0 70 -9
120 -27 154 -6 11 -10 23 -9 26 5 9 -15 9 -31 -1z"/>
<path d="M581 4734 c-52 -63 -53 -66 -35 -83 11 -9 89 -73 174 -141 85 -69
164 -132 175 -141 50 -43 104 -86 129 -104 16 -11 40 -31 55 -45 14 -14 54
-47 88 -73 34 -26 68 -53 75 -60 7 -7 42 -35 78 -62 36 -27 70 -54 75 -60 6
-6 31 -28 58 -49 53 -42 57 -59 24 -98 -12 -15 -33 -42 -47 -60 -14 -18 -39
-48 -55 -68 -17 -19 -67 -80 -110 -135 -90 -112 -97 -121 -154 -190 -23 -27
-45 -54 -49 -60 -27 -37 -80 -102 -94 -117 -9 -9 -24 -28 -34 -43 -16 -25 -16
-27 7 -52 62 -69 87 -93 97 -93 13 0 83 38 157 85 27 18 60 35 73 39 12 4 22
11 22 16 0 5 14 11 30 15 17 4 30 11 30 16 0 5 6 9 13 9 7 0 30 9 52 20 21 11
41 18 43 15 3 -2 14 1 26 7 11 7 24 13 29 14 4 1 8 2 10 4 1 1 10 3 19 5 9 2
34 9 55 16 42 14 221 18 268 6 16 -5 37 -15 46 -23 14 -12 20 -8 57 43 23 32
47 64 53 71 9 11 6 19 -14 38 -15 14 -28 24 -29 23 -2 -1 -27 6 -57 15 -121
36 -311 25 -449 -25 -93 -34 -92 -34 -92 -10 0 11 5 21 10 21 6 0 10 6 10 14
0 8 7 16 15 20 8 3 15 12 15 20 0 8 3 16 8 18 4 2 34 35 66 73 32 39 63 72 67
73 5 2 9 9 9 15 0 7 10 23 23 37 12 14 42 50 67 80 25 30 51 61 58 69 39 41
45 63 28 103 -4 9 -9 22 -10 30 -1 7 -8 24 -16 38 -8 14 -15 33 -17 43 -2 9
-13 34 -26 55 -13 20 -29 53 -37 72 -15 37 -118 203 -144 233 -9 9 -16 22 -16
27 0 6 -4 10 -10 10 -5 0 -10 7 -10 15 0 8 -9 20 -20 27 -11 7 -20 17 -20 22
0 7 -60 82 -105 132 -5 6 -39 44 -75 83 l-64 72 -61 -66 -62 -66 48 -47 c26
-26 77 -85 113 -132 37 -47 72 -92 79 -101 31 -39 57 -79 57 -86 0 -5 11 -25
25 -45 27 -40 31 -58 14 -58 -11 0 -161 119 -167 133 -2 4 -8 7 -12 7 -5 0
-22 12 -37 26 -15 15 -50 43 -78 64 -27 21 -63 49 -78 64 -15 14 -31 26 -34
26 -5 0 -22 14 -74 63 -10 9 -21 17 -24 17 -3 0 -15 9 -27 19 -13 11 -57 47
-98 81 -41 34 -85 71 -98 81 -12 10 -25 19 -30 19 -4 0 -31 -30 -61 -66z"/>
<path d="M2104 4517 c-8 -5 -18 -7 -21 -4 -2 3 -19 1 -36 -4 -36 -10 -86 -21
-104 -22 -12 0 -5 -26 19 -70 45 -84 69 -334 43 -447 -8 -37 -8 -130 0 -174 9
-46 60 -163 81 -183 7 -8 19 -22 26 -31 31 -42 128 -107 180 -121 4 -1 25 -8
45 -15 21 -7 70 -14 108 -15 69 -2 71 -1 85 26 8 15 17 30 20 33 6 6 26 40 56
97 13 23 31 54 40 68 29 45 54 89 67 118 6 15 15 27 20 27 4 0 3 9 -3 21 -11
19 -18 29 -62 80 -9 11 -31 38 -50 61 -18 23 -38 46 -43 52 -6 6 -24 29 -40
51 -31 41 -62 79 -81 99 -5 6 -50 61 -99 121 -49 61 -94 115 -100 121 -22 24
-51 60 -73 91 -22 32 -46 38 -78 20z m300 -572 c39 -18 86 -89 86 -127 0 -38
-25 -96 -51 -119 -31 -27 -86 -42 -131 -36 -31 4 -49 15 -79 48 -35 38 -39 49
-39 95 0 114 112 187 214 139z"/>
<path d="M5515 4149 c-64 -38 -214 -114 -285 -144 -30 -13 -84 -37 -120 -53
-69 -32 -361 -150 -760 -307 -135 -53 -259 -103 -277 -111 -17 -7 -38 -14 -46
-14 -9 0 -19 -4 -22 -10 -3 -5 -13 -10 -22 -10 -8 0 -29 -6 -46 -14 -18 -8
-70 -29 -117 -47 -47 -17 -98 -37 -115 -45 -16 -7 -88 -36 -160 -64 -71 -28
-149 -60 -172 -71 -24 -10 -47 -19 -53 -19 -5 0 -10 -3 -10 -8 0 -4 57 -24
128 -45 70 -21 137 -43 150 -48 13 -5 31 -9 41 -9 10 0 126 34 257 76 218 70
360 115 564 179 87 27 173 56 283 96 43 16 85 29 93 29 8 0 14 4 14 9 0 5 14
13 32 16 38 9 209 75 288 112 30 14 66 31 80 37 54 23 198 117 247 161 69 61
107 137 105 214 0 31 -3 65 -6 76 -2 11 -5 26 -5 33 -1 17 -9 15 -66 -19z"/>
<path d="M2745 3373 c-79 -13 -140 -46 -199 -108 -62 -65 -167 -250 -170 -298
-1 -24 10 -30 94 -55 75 -23 78 -21 105 52 42 115 132 215 198 221 23 2 57
-22 57 -41 0 -8 4 -14 10 -14 5 0 8 -19 5 -42 -4 -47 -11 -150 -21 -323 -3
-60 -7 -129 -9 -152 -2 -37 4 -52 49 -117 29 -40 66 -90 83 -109 17 -19 48
-61 69 -93 21 -31 51 -71 67 -88 16 -17 48 -60 72 -96 24 -36 64 -89 88 -119
l45 -53 -14 -57 c-7 -31 -25 -90 -39 -131 -15 -41 -31 -90 -36 -108 -12 -37
-104 -215 -128 -245 -50 -63 -98 -109 -151 -146 -33 -22 -65 -41 -70 -41 -6 0
-20 -5 -33 -12 -47 -24 -57 -28 -75 -28 -10 0 -22 -3 -26 -7 -3 -4 -12 -8 -19
-9 -33 -6 -203 -43 -222 -48 -5 -2 -29 -7 -53 -11 -23 -4 -45 -12 -48 -16 -3
-5 -10 -7 -15 -3 -5 3 -15 2 -22 -3 -7 -5 -41 -20 -77 -32 -36 -13 -76 -30
-90 -39 -14 -9 -30 -17 -36 -18 -48 -8 -283 -209 -349 -299 -17 -22 -35 -43
-41 -47 -6 -4 -17 -21 -24 -38 -7 -16 -16 -30 -21 -30 -5 0 -16 -15 -25 -32
-9 -18 -22 -36 -28 -40 -13 -9 34 -50 77 -69 15 -6 27 -16 27 -21 0 -5 5 -6
10 -3 5 3 10 1 10 -4 0 -25 37 -8 55 25 10 19 26 44 34 54 9 10 29 35 46 56
59 77 172 181 263 242 50 35 92 60 92 56 0 -3 10 0 23 9 48 31 255 94 407 122
46 9 154 43 210 67 135 58 210 115 290 218 19 25 37 47 41 50 3 3 9 15 13 28
4 12 11 22 15 22 4 0 21 28 37 63 16 34 31 64 35 67 3 3 13 28 23 55 19 55 27
76 46 120 7 17 15 39 17 50 2 10 13 49 24 85 11 36 22 74 24 85 2 11 8 38 14
59 9 36 7 43 -18 75 -15 20 -45 63 -66 95 -22 32 -51 71 -65 85 -14 14 -42 51
-63 83 -20 31 -57 80 -82 109 -25 29 -45 56 -45 60 0 4 -6 14 -13 21 -7 7 -25
31 -40 53 -40 59 -22 65 70 22 28 -13 112 -3 157 18 18 9 47 35 64 58 l30 42
-122 40 c-66 22 -123 40 -126 40 -3 0 -9 3 -15 6 -5 4 -35 14 -67 24 -62 19
-69 30 -61 96 7 48 1 48 158 0 55 -17 112 -31 126 -31 63 0 147 48 174 99 l14
29 -47 12 c-26 7 -51 16 -57 20 -5 3 -30 12 -55 19 -25 7 -63 19 -85 26 -22 6
-58 17 -80 24 -22 7 -49 16 -60 21 -11 5 -32 11 -46 14 -23 5 -27 12 -33 58
-8 58 -17 77 -57 128 -43 55 -159 103 -224 93z"/>
<path d="M5023 3335 c-46 -18 -83 -31 -83 -28 0 3 -6 1 -12 -5 -10 -8 -501
-177 -543 -187 -5 -1 -17 -5 -25 -8 -49 -19 -264 -87 -295 -93 -20 -3 -33 -10
-28 -14 21 -19 212 -73 253 -72 69 3 307 52 378 78 34 13 62 21 62 19 0 -6
108 40 173 74 74 38 155 100 163 123 3 10 9 18 14 18 8 0 50 101 50 120 0 15
-19 11 -107 -25z"/>
<path d="M1977 3014 c-1 -1 -29 -4 -62 -7 -69 -7 -94 -11 -225 -37 -52 -11
-106 -21 -120 -24 -14 -2 -25 -5 -25 -6 0 -1 -8 -3 -17 -5 -48 -9 -155 -37
-173 -45 -11 -5 -51 -18 -90 -30 -164 -51 -474 -192 -650 -297 -74 -44 -169
-105 -175 -113 -3 -3 -27 -21 -55 -40 -63 -43 -217 -165 -272 -217 -24 -22
-44 -38 -47 -36 -2 3 -7 -5 -11 -16 -3 -12 -12 -21 -18 -21 -7 0 -18 -9 -25
-21 -33 -52 171 -175 293 -177 31 -1 189 29 200 37 5 4 42 21 80 36 70 29 199
99 223 122 6 6 22 15 35 19 12 4 24 10 27 14 3 3 52 37 110 75 58 38 114 77
124 87 11 10 23 18 27 18 4 0 14 6 21 13 7 7 29 22 48 34 19 12 44 30 55 40
11 10 43 33 71 51 29 18 63 43 76 55 13 12 41 33 61 47 20 14 37 28 37 33 0 4
5 7 10 7 12 0 136 90 175 128 8 6 18 12 24 12 6 0 11 3 11 8 0 4 20 20 45 35
25 16 45 33 45 39 0 5 4 7 9 4 5 -4 11 -2 13 2 1 4 26 23 53 42 28 18 52 36
55 40 3 3 25 21 50 40 25 19 47 37 50 41 3 3 12 9 20 12 8 3 -6 5 -33 5 -26
-1 -48 -3 -50 -4z"/>
<path d="M2229 2848 c-8 -8 -30 -25 -49 -38 -19 -13 -37 -27 -40 -30 -3 -3
-36 -28 -75 -55 -97 -69 -156 -113 -180 -134 -11 -10 -40 -31 -65 -46 -25 -15
-47 -31 -50 -34 -3 -3 -23 -19 -45 -36 -22 -16 -46 -35 -54 -43 -7 -7 -36 -28
-65 -47 -50 -34 -113 -81 -149 -110 -9 -8 -22 -15 -27 -15 -6 0 -10 -4 -10 -8
0 -4 -25 -23 -55 -41 -30 -18 -64 -41 -76 -52 -12 -10 -54 -40 -93 -66 -39
-27 -72 -51 -74 -55 -2 -5 -10 -8 -17 -8 -7 0 -15 -4 -17 -9 -3 -8 -88 -64
-98 -65 -3 0 -13 -7 -22 -15 -9 -9 -34 -25 -55 -36 -21 -11 -61 -34 -90 -51
-49 -29 -51 -31 -34 -46 34 -29 125 -71 181 -82 68 -15 170 -2 228 28 17 9 36
16 41 16 14 0 173 101 192 122 9 10 19 15 23 11 3 -3 6 -2 6 3 0 5 18 20 40
34 22 14 40 28 40 31 0 4 19 19 41 34 23 15 55 40 70 56 16 16 29 28 29 25 0
-2 15 10 33 27 18 18 53 49 78 70 62 53 176 156 213 192 17 16 34 29 39 27 4
-1 7 2 7 8 0 9 55 70 64 70 2 0 22 17 44 38 22 20 61 56 85 79 43 40 45 44 37
80 -9 41 -21 115 -24 150 -2 30 -11 36 -27 21z"/>
<path d="M4010 2395 c-41 -7 -104 -16 -140 -20 -75 -9 -77 -9 -150 -20 -72
-11 -73 -11 -157 -20 -40 -4 -73 -12 -73 -17 0 -23 53 -95 86 -118 32 -22 49
-25 123 -26 47 -1 91 2 96 6 6 4 25 8 44 8 l34 1 -7 -47 c-3 -25 -11 -51 -16
-56 -6 -6 -10 -18 -10 -28 0 -11 -9 -38 -20 -60 -11 -23 -20 -47 -20 -54 0
-17 -92 -194 -134 -258 l-36 -53 14 -74 c8 -41 22 -108 31 -149 9 -41 18 -86
20 -100 2 -14 4 -25 5 -25 1 0 12 -49 25 -110 22 -107 22 -110 4 -127 -10 -10
-22 -18 -26 -18 -4 0 -29 -23 -55 -50 -47 -50 -98 -138 -98 -170 0 -9 -5 -21
-10 -26 -24 -24 -20 -397 5 -422 4 -4 36 2 138 29 34 9 38 13 32 32 -4 12 -9
78 -11 147 -3 104 -1 133 15 175 43 116 63 133 80 68 10 -39 32 -146 37 -173
1 -8 9 -51 19 -95 9 -44 17 -86 18 -92 1 -20 17 -20 117 0 54 11 65 17 63 33
-1 10 -17 93 -36 184 -20 91 -52 244 -72 340 -39 190 -40 191 -55 265 -6 28
-13 61 -15 75 -3 14 -6 32 -8 40 -2 8 -7 38 -12 65 -4 28 -12 56 -17 62 -6 7
-8 19 -5 27 3 7 1 18 -4 23 -7 7 -2 27 15 59 27 54 84 170 122 252 51 108 107
310 119 427 3 33 9 70 12 83 3 12 1 21 -3 21 -5 -1 -43 -7 -84 -14z"/>
<path d="M2353 2371 c-20 -5 -166 -135 -265 -234 -21 -21 -38 -37 -38 -34 0 2
-21 -16 -47 -40 -27 -25 -68 -61 -93 -81 -24 -21 -58 -50 -75 -67 -18 -16 -50
-45 -73 -63 -22 -18 -53 -44 -69 -58 -15 -13 -32 -24 -37 -24 -21 0 16 -26 40
-28 15 -1 30 -6 33 -11 12 -17 137 -5 194 18 32 13 57 27 57 32 0 5 5 9 10 9
11 0 65 38 114 80 27 23 282 268 309 298 7 6 51 52 100 101 48 49 87 91 87 93
0 2 -48 5 -107 6 -60 2 -110 5 -113 6 -3 2 -15 0 -27 -3z"/>
<path d="M2906 1521 c-4 -5 -23 -15 -44 -21 -20 -7 -51 -18 -67 -25 -17 -8
-46 -17 -65 -20 -18 -3 -36 -7 -39 -9 -3 -2 -30 -7 -60 -11 -30 -4 -63 -9 -75
-11 -12 -3 -59 -11 -106 -19 -177 -30 -287 -62 -382 -112 -16 -8 -28 -11 -28
-7 0 4 -8 0 -17 -8 -10 -8 -38 -25 -62 -37 -110 -55 -338 -253 -451 -391 -19
-23 -45 -53 -58 -66 -12 -13 -22 -27 -22 -33 0 -5 -6 -16 -13 -23 -8 -7 -21
-27 -29 -43 -92 -173 -105 -301 -43 -430 34 -71 107 -142 195 -191 19 -10 42
-24 50 -30 43 -32 172 -41 238 -17 48 17 154 99 207 158 33 37 66 74 73 81 6
7 12 17 12 22 0 6 4 12 8 14 4 2 32 38 61 80 40 57 74 91 131 132 43 31 84 56
92 56 9 0 21 6 27 14 6 7 24 16 39 19 15 3 38 10 52 15 29 11 21 9 125 40 44
13 98 28 120 34 22 5 47 12 55 15 8 3 22 7 30 9 8 2 23 7 35 12 11 6 56 24 99
42 78 31 199 107 222 139 7 9 24 30 38 46 14 17 29 38 32 48 3 9 9 17 14 17 7
0 30 52 30 67 0 3 -15 -10 -34 -28 -113 -113 -173 -152 -341 -224 -22 -9 -67
-24 -100 -32 -33 -8 -67 -16 -75 -19 -8 -2 -60 -13 -115 -24 -55 -12 -104 -23
-110 -24 -5 -2 -25 -7 -43 -11 -18 -4 -35 -12 -38 -16 -3 -5 -13 -9 -22 -9 -9
0 -28 -6 -42 -13 -117 -63 -151 -85 -194 -126 -76 -72 -116 -114 -134 -141 -9
-14 -25 -31 -34 -38 -10 -7 -18 -19 -18 -26 0 -16 -105 -126 -121 -126 -7 0
-21 -8 -32 -17 -15 -15 -38 -18 -116 -18 -84 0 -102 3 -141 25 -65 36 -130
109 -130 145 0 7 -4 15 -10 17 -5 2 -12 33 -16 70 -5 51 -3 80 11 120 15 48
81 153 120 192 8 8 15 17 15 21 0 17 234 254 280 284 14 8 50 34 81 57 71 51
204 117 299 147 99 32 157 46 315 76 129 24 171 38 231 80 52 37 110 98 101
107 -3 3 -8 1 -11 -5z"/>
</g>
</svg>
