<svg version="1.1" viewBox="0.0 0.0 960.0 540.0" fill="none" stroke="none" stroke-linecap="square" stroke-miterlimit="10" xmlns:xlink="http://www.w3.org/1999/xlink" xmlns="http://www.w3.org/2000/svg"><clipPath id="g1407bbc947d_0_0.0"><path d="m0 0l960.0 0l0 540.0l-960.0 0l0 -540.0z" clip-rule="nonzero"/></clipPath><g clip-path="url(#g1407bbc947d_0_0.0)"><path fill="#ffffff" d="m0 0l960.0 0l0 540.0l-960.0 0z" fill-rule="evenodd"/><path fill="#000000" fill-opacity="0.0" d="m0 110.01575l960.0 0l0 319.9685l-960.0 0z" fill-rule="evenodd"/><path fill="#4b4b4b" d="m97.234375 361.5645q-16.09375 0 -31.0625 -5.828125q-14.953125 -5.828125 -26.75 -17.359375q-11.78125 -11.546875 -18.625 -28.625q-6.84375 -17.078125 -6.84375 -39.65625q0 -22.32814 6.84375 -39.406265q6.84375 -17.09375 18.75 -28.625q11.921875 -11.53125 26.875 -17.46875q14.953125 -5.953125 30.8125 -5.953125q16.078125 0 31.03125 5.6875q14.96875 5.6875 26.765625 17.234375q11.8125 11.546875 18.640625 28.765625q6.84375 17.203125 6.84375 39.76564q0 22.0625 -6.84375 39.28125q-6.828125 17.21875 -18.625 28.75q-11.796875 11.515625 -26.75 17.484375q-14.953125 5.953125 -31.0625 5.953125zm0 -15.53125q11.71875 0 18.765625 -6.109375q7.0625 -6.125 10.65625 -22.75q3.609375 -16.625 3.609375 -47.078125q0 -30.70314 -3.609375 -47.312515q-3.59375 -16.625 -10.65625 -22.75q-7.046875 -6.125 -18.765625 -6.125q-11.46875 0 -18.53125 6.125q-7.046875 6.125 -10.65625 22.75q-3.59375 16.609375 -3.59375 47.312515q0 30.453125 3.59375 47.078125q3.609375 16.625 10.65625 22.75q7.0625 6.109375 18.53125 6.109375zm82.87869 68.109375l0 -11.34375l6.65625 -2.234375q5.5 -1.484375 5.5 -6.96875l0 -134.90625q0 -3.8593903 -0.828125 -5.0625153q-0.8125 -1.203125 -3.734375 -1.796875l-7.59375 -1.59375l0 -10.359375l48.71875 -16.625l5.65625 5.703125l0.734375 2.5q3.0625 -1.84375 13.78125 -4.765625q10.734375 -2.921875 22.078125 -2.921875q23.859375 0 37.6875 17.953125q13.84375 17.95314 13.84375 49.95314q0 31.578125 -15.109375 50.359375q-15.109375 18.78125 -42.625 18.78125q-20.640625 0 -27.828125 -3.0625l0 35.109375q0 6.0 5.125 7.40625l8.515625 2.265625l0 11.609375l-70.578125 0zm72.859375 -70.828125q9.40625 0 15.640625 -11.0q6.25 -11.0 6.25 -39.640625q0 -28.640625 -5.859375 -38.781265q-5.859375 -10.140625 -16.03125 -10.140625q-7.875 0 -15.171875 3.890625l0 93.437515q5.3125 2.234375 15.171875 2.234375zm121.773834 17.5q-17.859375 0 -28.25 -9.359375q-10.390625 -9.375 -10.390625 -29.03125l0 -79.656265l-17.109375 0l0 -12.015625l10.125 -1.671875q6.765625 -1.53125 11.703125 -4.390625q4.953125 -2.859375 9.859375 -7.734375l21.765625 -24.1875l10.046875 0l-0.75 34.734375l27.671875 0l0 15.265625l-28.03125 0l0 84.125015q0 6.765625 2.4375 9.609375q2.453125 2.84375 6.046875 2.84375q3.671875 0 6.703125 -1.984375q3.046875 -2.0 10.171875 -10.046875l9.1875 9.171875q-7.671875 13.046875 -17.546875 18.6875q-9.859375 5.640625 -23.640625 5.640625zm103.908966 -137.04689q17.5 0 30.140625 7.296875q12.6406555 7.28125 19.37503 19.78125q6.734375 12.500015 6.734375 28.187515q0 2.9375 -0.296875 6.203125q-0.28125 3.265625 -2.359375 9.609375l-72.43753 0q0.1875 19.8125 8.15625 29.921875q7.984375 10.109375 23.84375 10.109375q11.140625 0 17.828125 -3.453125q6.7031555 -3.453125 16.203156 -14.359375l9.421875 8.515625q-10.375 18.421875 -24.34378 26.828125q-13.953125 8.40625 -33.25 8.40625q-18.9375 0 -33.828125 -8.25q-14.875 -8.25 -23.234375 -23.625q-8.359375 -15.375 -8.359375 -36.265625q0 -21.828125 9.6875 -37.29689q9.6875 -15.46875 24.875 -23.53125q15.1875 -8.078125 31.84375 -8.078125zm-0.734375 15.28125q-5.296875 0 -9.046875 3.1875q-3.734375 3.1875 -6.3125 13.140625q-2.5625 9.95314 -2.734375 24.20314l32.484375 0q1.9375 -21.171875 -1.703125 -30.843765q-3.625 -9.6875 -12.6875 -9.6875zm59.064056 118.04689l0 -11.609375l7.5 -1.984375q3.0 -0.890625 3.953125 -2.421875q0.953125 -1.53125 0.953125 -4.765625l0 -77.625q0 -3.7968903 -0.796875 -4.8906403q-0.78125 -1.109375 -3.890625 -1.734375l-7.71875 -2.046875l0 -10.15625l49.203125 -16.59375l6.03125 6.03125l2.453125 23.421875l-4.6875 0.265625q-1.265625 -7.953125 4.859375 -14.34375q6.125 -6.40625 13.875 -10.640625q7.75 -4.234375 15.765625 -4.234375q11.625 0 18.0625 6.765625q6.4375 6.75 6.4375 16.75q0 10.656265 -6.390625 16.718765q-6.375 6.046875 -15.140625 6.046875q-12.953125 0 -22.203125 -12.140625l-0.5625 -0.546875q-1.421875 -2.0000153 -2.078125 -2.0625153q-0.65625 -0.078125 -1.875 1.4687653q-2.125 1.90625 -3.453125 4.453125q-1.3125 2.546875 -2.359375 5.359375l0 68.25q0 6.03125 4.921875 7.421875l11.6875 3.296875l0 11.546875l-74.546875 0zm141.32037 59.515625q-11.8125 0 -19.28125 -6.359375q-7.453125 -6.34375 -7.453125 -16.40625q0 -9.328125 6.59375 -14.9375q6.59375 -5.59375 14.671875 -5.59375q7.671875 0 13.0 3.296875q5.328125 3.296875 8.984375 8.921875l1.640625 1.859375q1.359375 1.859375 2.578125 0.15625q1.984375 -3.3125 4.734375 -9.171875q2.75 -5.859375 5.703125 -13.90625l-47.375 -113.312515q-1.5625 -4.203125 -2.953125 -6.1875q-1.375 -2.0 -4.40625 -3.34375l-7.640625 -2.96875l0 -11.15625l72.0625 0l0 10.859375l-8.359375 3.359375q-2.171875 0.6875 -2.21875 2.234375q-0.046875 1.546875 1.59375 6.265625l20.796875 54.01564l19.84375 -54.70314q1.578125 -4.53125 1.375 -6.046875q-0.203125 -1.515625 -2.484375 -2.109375l-9.109375 -2.1875l0 -11.6875l44.78125 0l0 11.390625l-9.078125 2.890625q-4.015625 1.21875 -5.546875 3.421875q-1.515625 2.203125 -3.28125 7.28125l-39.9375 108.92189q-9.9375 26.765625 -20.609375 40.984375q-10.671875 14.21875 -28.625 14.21875zm103.20923 -59.515625l0 -11.75l10.484375 -2.40625q4.671875 -1.015625 7.46875 -3.046875q2.796875 -2.03125 5.546875 -6.015625l24.828125 -35.640625l-31.875 -50.64064q-2.15625 -3.234375 -3.4375 -4.515625q-1.28125 -1.28125 -4.1875 -1.96875l-7.328125 -2.109375l0 -11.5l73.296875 0l0 11.703125l-8.0 1.890625q-2.09375 0.65625 -0.5 3.15625l16.234375 25.156265l17.578125 -24.29689q1.765625 -2.71875 1.75 -2.84375q0 -0.140625 -1.09375 -0.4375l-10.0 -2.796875l0 -11.53125l46.53125 0l0 11.640625l-9.796875 2.46875q-4.390625 1.203125 -6.65625 3.0q-2.265625 1.78125 -5.34375 6.1875l-23.96875 32.406265l32.046875 49.828125q5.109375 7.96875 13.703125 10.234375l7.703125 2.390625l0 11.4375l-78.765625 0l0 -11.734375l8.1875 -1.90625q1.5 -0.359375 1.71875 -0.953125q0.21875 -0.609375 -0.921875 -2.421875l-17.625 -27.4375l-19.21875 27.90625q-1.3125 1.765625 -1.203125 2.046875q0.109375 0.265625 1.5 0.625l8.859375 2.203125l0 11.671875l-47.515625 0z" fill-rule="nonzero"/></g></svg>