<svg version="1.1" viewBox="0.0 0.0 960.0 264.56692913385825" fill="none" stroke="none" stroke-linecap="square" stroke-miterlimit="10" xmlns:xlink="http://www.w3.org/1999/xlink" xmlns="http://www.w3.org/2000/svg"><clipPath id="g13f73d9c038_0_0.0"><path d="m0 0l960.0 0l0 264.56693l-960.0 0l0 -264.56693z" clip-rule="nonzero"/></clipPath><g clip-path="url(#g13f73d9c038_0_0.0)"><path fill="#ffffff" d="m0 0l960.0 0l0 264.56693l-960.0 0z" fill-rule="evenodd"/><path fill="#000000" fill-opacity="0.0" d="m0 -65.10355l960.0 0l0 329.66928l-960.0 0z" fill-rule="evenodd"/><path fill="#4b4b4b" d="m100.09375 194.26582q-16.625 0 -32.0625 -6.0156403q-15.4375 -6.015625 -27.625 -17.90625q-12.171875 -11.90625 -19.234375 -29.546875q-7.046875 -17.640617 -7.046875 -40.953117q0 -23.046875 7.0625 -40.6875q7.0625 -17.640625 19.359375 -29.53125q12.296875 -11.90625 27.734375 -18.046875q15.4375 -6.1406255 31.8125 -6.1406255q16.59375 0 32.03125 5.8750005q15.4375 5.875 27.625 17.796875q12.203125 11.921875 19.25 29.6875q7.0625 17.765625 7.0625 41.046875q0 22.78125 -7.0625 40.546867q-7.046875 17.765625 -19.234375 29.6875q-12.171875 11.90625 -27.609375 18.046875q-15.4375 6.1406403 -32.0625 6.1406403zm0 -16.031265q12.09375 0 19.375 -6.3125q7.28125 -6.328125 11.0 -23.484375q3.71875 -17.171875 3.71875 -48.593742q0 -31.671875 -3.71875 -48.828125q-3.71875 -17.171875 -11.0 -23.484375q-7.28125 -6.328125 -19.375 -6.328125q-11.84375 0 -19.125 6.328125q-7.28125 6.3125 -11.0 23.484375q-3.71875 17.15625 -3.71875 48.828125q0 31.421867 3.71875 48.593742q3.71875 17.15625 11.0 23.484375q7.28125 6.3125 19.125 6.3125zm85.551285 70.29689l0 -11.734375l6.859375 -2.28125q5.671875 -1.53125 5.671875 -7.171875l0 -139.26562q0 -4.0 -0.84375 -5.234375q-0.84375 -1.234375 -3.859375 -1.84375l-7.828125 -1.671875l0 -10.6875l50.265625 -17.140625l5.875 5.875l0.75 2.578125q3.140625 -1.921875 14.218735 -4.921875q11.078125 -3.0 22.796875 -3.0q24.640625 0 38.90625 18.53125q14.28125 18.515625 14.28125 51.5625q0 32.593742 -15.59375 51.984367q-15.59375 19.39064 -44.0 19.39064q-21.312485 0 -28.718735 -3.1562653l0 36.218765q0 6.203125 5.28125 7.671875l8.79686 2.28125l0 12.015625l-72.85936 0zm75.218735 -73.10939q9.6875 0 16.125 -11.34375q6.4375 -11.359375 6.4375 -40.937492q0 -29.546875 -6.046875 -40.0q-6.03125 -10.46875 -16.515625 -10.46875q-8.156235 0 -15.67186 4.015625l0 96.42187q5.484375 2.3125 15.67186 2.3125zm125.69403 18.07814q-18.4375 0 -29.171875 -9.67189q-10.71875 -9.671875 -10.71875 -29.96875l0 -82.21874l-17.671875 0l0 -12.40625l10.453125 -1.734375q6.984375 -1.578125 12.09375 -4.53125q5.109375 -2.953125 10.15625 -8.0l22.484375 -24.9375l10.359375 0l-0.765625 35.828125l28.5625 0l0 15.78125l-28.921875 0l0 86.82812q0 6.984375 2.515625 9.921875q2.53125 2.921875 6.234375 2.921875q3.78125 0 6.921875 -2.0625q3.140625 -2.0625 10.53125 -10.328125l9.453125 9.4375q-7.921875 13.484375 -18.109375 19.3125q-10.1875 5.8281403 -24.40625 5.8281403zm107.257385 -141.46875q18.0625 0 31.109375 7.515625q13.046875 7.515625 20.0 20.421875q6.953125 12.90625 6.953125 29.09375q0 3.046875 -0.296875 6.421875q-0.296875 3.359375 -2.46875 9.921875l-74.75 0q0.1875 20.437492 8.421875 30.874992q8.234375 10.4375 24.59375 10.4375q11.515625 0 18.421875 -3.5625q6.90625 -3.578125 16.71875 -14.84375l9.75 8.8125q-10.71875 19.015625 -25.140625 27.703125q-14.421875 8.67189 -34.328125 8.67189q-19.5625 0 -34.921875 -8.51564q-15.359375 -8.53125 -24.0 -24.390625q-8.625 -15.859375 -8.625 -37.453117q0 -22.515625 10.0 -38.484375q10.0 -15.96875 25.671875 -24.296875q15.6875 -8.328125 32.890625 -8.328125zm-0.765625 15.765625q-5.453125 0 -9.328125 3.296875q-3.859375 3.296875 -6.515625 13.5625q-2.65625 10.265625 -2.828125 24.96875l33.515625 0q2.0 -21.84375 -1.75 -31.828125q-3.734375 -10.0 -13.09375 -10.0zm60.979492 121.85937l0 -11.984375l7.703125 -2.046875q3.125 -0.9375 4.109375 -2.515625q0.984375 -1.578125 0.984375 -4.90625l0 -80.12499q0 -3.9375 -0.8125 -5.0625q-0.8125 -1.140625 -4.046875 -1.78125l-7.9375 -2.140625l0 -10.46875l50.796875 -17.125l6.234375 6.234375l2.515625 24.171875l-4.84375 0.28125q-1.3125 -8.234375 5.015625 -14.828125q6.328125 -6.609375 14.328125 -10.96875q8.0 -4.359375 16.265625 -4.359375q12.015625 0 18.65625 6.984375q6.640625 6.96875 6.640625 17.28125q0 11.0 -6.59375 17.25q-6.59375 6.25 -15.625 6.25q-13.390625 0 -23.0 -12.59375l-0.546875 -0.578125q-1.421875 -1.984375 -2.109375 -2.046875q-0.671875 -0.078125 -1.921875 1.515625q-2.1875 1.96875 -3.5625 4.609375q-1.359375 2.625 -2.453125 5.5l0 70.46874q0 6.21875 5.09375 7.671875l12.0625 3.375l0 11.9375l-76.953125 0zm145.867 61.437515q-12.1875 0 -19.890625 -6.546875q-7.703125 -6.546875 -7.703125 -16.953125q0 -9.640625 6.796875 -15.421875q6.8125 -5.78125 15.171875 -5.78125q7.90625 0 13.40625 3.390625q5.5 3.40625 9.28125 9.21875l1.6875 1.921875q1.40625 1.921875 2.640625 0.171875q2.0625 -3.421875 4.890625 -9.46875q2.84375 -6.046875 5.890625 -14.375l-48.921875 -116.95313q-1.578125 -4.328125 -3.015625 -6.375q-1.421875 -2.0625 -4.546875 -3.453125l-7.890625 -3.078125l0 -11.53125l74.390625 0l0 11.25l-8.640625 3.453125q-2.234375 0.71875 -2.28125 2.3125q-0.046875 1.578125 1.640625 6.453125l21.46875 55.734367l20.484375 -56.453117q1.609375 -4.671875 1.40625 -6.234375q-0.203125 -1.5625 -2.53125 -2.171875l-9.4375 -2.25l0 -12.09375l46.25 0l0 11.78125l-9.375 3.0q-4.140625 1.265625 -5.71875 3.53125q-1.5625 2.25 -3.390625 7.5l-41.234375 112.43751q-10.265625 27.609375 -21.28125 42.296875q-11.015625 14.6875 -29.546875 14.6875zm106.54413 -61.437515l0 -12.125l10.828125 -2.5q4.828125 -1.046875 7.703125 -3.125q2.890625 -2.09375 5.703125 -6.21875l25.640625 -36.8125l-32.890625 -52.249992q-2.234375 -3.34375 -3.5625 -4.65625q-1.3125 -1.328125 -4.3125 -2.03125l-7.578125 -2.171875l0 -11.90625l75.6875 0l0 12.109375l-8.28125 1.953125q-2.140625 0.671875 -0.5 3.25l16.75 25.9375l18.15625 -25.0625q1.796875 -2.796875 1.796875 -2.921875q0 -0.140625 -1.125 -0.4375l-10.3125 -2.90625l0 -11.921875l48.03125 0l0 12.0625l-10.140625 2.515625q-4.515625 1.234375 -6.859375 3.09375q-2.328125 1.859375 -5.515625 6.390625l-24.734375 33.4375l33.09375 51.453117q5.265625 8.234375 14.125 10.546875l7.96875 2.484375l0 11.8125l-81.3125 0l0 -12.109375l8.453125 -1.984375q1.53125 -0.359375 1.75 -0.984375q0.234375 -0.625 -0.9375 -2.5l-18.1875 -28.296875l-19.828125 28.8125q-1.359375 1.8125 -1.25 2.09375q0.109375 0.265625 1.53125 0.625l9.171875 2.296875l0 12.046875l-49.0625 0z" fill-rule="nonzero"/></g></svg>