<svg width="362.9" height="91.802" viewBox="0 0 362.9 91.802" xmlns="http://www.w3.org/2000/svg"><g id="svgGroup" stroke-linecap="round" fill-rule="evenodd" font-size="9pt" stroke="#4b4b4b" stroke-width="0.7mm" fill="#4b4b4b" style="stroke:#4b4b4b;stroke-width:0.7mm;fill:#4b4b4b"><path d="M 269.9 82.6 L 270.6 83.4 Q 272.729 86.302 274.857 83.496 A 7.676 7.676 0 0 0 275 83.3 Q 275.9 81.8 277.05 79.35 A 49.971 49.971 0 0 0 277.803 77.658 Q 278.641 75.685 279.634 72.981 A 157.712 157.712 0 0 0 279.7 72.8 L 260.3 26.4 A 19.228 19.228 0 0 0 259.767 25.093 Q 259.304 24.073 258.8 23.35 Q 258.153 22.419 256.85 21.718 A 9.555 9.555 0 0 0 256.2 21.4 L 254.4 20.7 L 254.4 19.7 L 279.3 19.7 L 279.3 20.6 L 277.3 21.4 Q 276.194 21.752 275.631 22.319 A 1.918 1.918 0 0 0 275.05 23.65 A 5.737 5.737 0 0 0 275.047 23.835 Q 275.047 25.335 275.8 27.5 L 286.2 54.5 L 296.1 27.2 A 14.091 14.091 0 0 0 296.478 25.94 Q 296.829 24.51 296.71 23.433 A 4.562 4.562 0 0 0 296.7 23.35 A 2.076 2.076 0 0 0 295.811 21.907 Q 295.453 21.644 294.955 21.445 A 6.357 6.357 0 0 0 294.2 21.2 L 292.1 20.7 L 292.1 19.7 L 306 19.7 L 306 20.7 L 303.8 21.4 Q 302.325 21.849 301.426 22.545 A 3.877 3.877 0 0 0 300.6 23.4 A 9.918 9.918 0 0 0 299.966 24.464 Q 299.413 25.527 298.9 27 L 282.8 70.9 Q 279.185 80.634 275.569 85.814 A 28.525 28.525 0 0 1 275 86.6 A 13.633 13.633 0 0 1 271.454 89.965 A 11.908 11.908 0 0 1 264.9 91.8 A 12.956 12.956 0 0 1 262.292 91.553 Q 260.074 91.097 258.55 89.8 A 6.548 6.548 0 0 1 256.683 87.284 A 6.756 6.756 0 0 1 256.2 84.7 Q 256.2 81.9 258.2 80.2 Q 260.2 78.5 262.7 78.5 Q 265.2 78.5 266.9 79.55 A 8.725 8.725 0 0 1 268.778 81.132 A 11.576 11.576 0 0 1 269.9 82.6 Z M 323.6 67.8 L 308.6 67.8 L 308.6 66.8 L 311.2 66.2 Q 313.158 65.775 314.5 64.951 A 7.123 7.123 0 0 0 314.95 64.65 Q 316.284 63.685 317.49 62.001 A 16.997 16.997 0 0 0 317.7 61.7 L 328.5 46.2 L 314.9 24.6 A 24.318 24.318 0 0 0 314.295 23.731 Q 313.656 22.857 313.109 22.309 A 7.12 7.12 0 0 0 313.1 22.3 A 3.45 3.45 0 0 0 312.338 21.736 Q 311.636 21.344 310.6 21.1 L 309.2 20.7 L 309.2 19.7 L 334.6 19.7 L 334.6 20.7 L 332.9 21.1 A 5.363 5.363 0 0 0 331.995 21.47 Q 329.748 22.662 331.439 25.403 A 8.402 8.402 0 0 0 331.5 25.5 L 339.7 38.2 L 348.6 25.9 A 9.85 9.85 0 0 0 349.109 25.025 Q 349.653 23.958 349.653 23.151 A 2.326 2.326 0 0 0 349.65 23.05 A 1.339 1.339 0 0 0 349.126 22.053 Q 348.639 21.647 347.7 21.4 L 345.2 20.7 L 345.2 19.7 L 359.8 19.7 L 359.8 20.7 L 357.4 21.3 A 14.158 14.158 0 0 0 356.006 21.754 Q 354.788 22.227 354 22.85 Q 353.194 23.488 352.298 24.601 A 22.207 22.207 0 0 0 351.4 25.8 L 340.9 40 L 354.6 61.3 Q 357.1 65.2 361.3 66.3 L 362.9 66.8 L 362.9 67.8 L 335.3 67.8 L 335.3 66.8 L 337 66.4 A 4.299 4.299 0 0 0 337.858 66.108 Q 338.373 65.864 338.705 65.496 A 2.223 2.223 0 0 0 339.15 64.75 Q 339.542 63.663 338.837 62.312 A 6.106 6.106 0 0 0 338.6 61.9 L 329.8 48.2 L 320.3 62 Q 319.1 63.6 319.55 64.75 A 2.253 2.253 0 0 0 320.526 65.873 Q 320.975 66.144 321.6 66.3 L 323.6 66.8 L 323.6 67.8 Z M 91.3 90.8 L 67 90.8 L 67 89.8 L 68.2 89.4 Q 71.9 88.4 71.9 84.6 L 71.9 30.2 Q 71.9 28 71.15 26.9 A 2.882 2.882 0 0 0 70.255 26.072 Q 69.845 25.82 69.309 25.639 A 7.324 7.324 0 0 0 68.4 25.4 L 67 25.1 L 67 24.1 L 84 18.3 L 85 19.3 L 85.9 22.4 A 27.827 27.827 0 0 1 91.758 19.744 A 32.034 32.034 0 0 1 93.25 19.3 Q 97.3 18.2 101.6 18.2 A 18.134 18.134 0 0 1 108.211 19.36 A 16.226 16.226 0 0 1 115.25 24.75 A 21.728 21.728 0 0 1 118.701 31.558 Q 119.651 34.572 120.036 38.217 A 50.259 50.259 0 0 1 120.3 43.5 Q 120.3 52.529 117.158 58.671 A 21.692 21.692 0 0 1 114.75 62.4 Q 109.2 69.3 99.1 69.3 A 45.067 45.067 0 0 1 93.31 68.949 Q 89.091 68.402 85.8 67 L 85.8 84.3 A 6.682 6.682 0 0 0 86.054 86.213 Q 86.691 88.345 88.922 89.148 A 6.738 6.738 0 0 0 89.4 89.3 L 91.3 89.8 L 91.3 90.8 Z M 206.1 42.7 L 176.3 42.7 A 50.133 50.133 0 0 0 176.611 48.011 Q 177.262 53.605 179.264 56.959 A 12.048 12.048 0 0 0 180.15 58.25 A 12.078 12.078 0 0 0 187.327 62.603 A 18.779 18.779 0 0 0 191.3 63 A 25.648 25.648 0 0 0 194.513 62.811 Q 197.366 62.45 199.4 61.4 A 18.018 18.018 0 0 0 203.075 58.854 A 23.359 23.359 0 0 0 205.2 56.7 L 206.2 57.6 Q 203.1 63.1 197.95 66.2 A 21.218 21.218 0 0 1 190.712 68.864 A 28.72 28.72 0 0 1 185.6 69.3 A 28.175 28.175 0 0 1 178.508 68.439 A 23.43 23.43 0 0 1 173 66.25 Q 167.5 63.2 164.4 57.5 A 24.88 24.88 0 0 1 161.817 49.983 A 34.192 34.192 0 0 1 161.3 43.9 A 31.144 31.144 0 0 1 161.965 37.306 A 22.841 22.841 0 0 1 164.9 29.95 A 24.847 24.847 0 0 1 171.134 23.105 A 23.554 23.554 0 0 1 174.15 21.2 Q 179.8 18.2 186 18.2 Q 192.5 18.2 197.1 20.85 Q 201.7 23.5 204.15 28.05 Q 206.6 32.6 206.6 38.4 Q 206.6 39.5 206.5 40.65 Q 206.4 41.8 206.1 42.7 Z M 31.5 69.6 Q 25.4 69.6 19.75 67.4 Q 14.1 65.2 9.65 60.85 A 29.584 29.584 0 0 1 4.112 53.302 A 36.273 36.273 0 0 1 2.6 50 A 35.009 35.009 0 0 1 0.572 42.473 Q 0.018 38.991 0.001 35.055 A 57.89 57.89 0 0 1 0 34.8 Q 0 26.2 2.6 19.7 Q 5.2 13.2 9.7 8.85 Q 14.2 4.5 19.85 2.25 A 33.334 33.334 0 0 1 19.939 2.215 A 31.209 31.209 0 0 1 31.5 0 Q 37.6 0 43.25 2.15 Q 48.9 4.3 53.35 8.65 A 29.34 29.34 0 0 1 58.792 16.04 A 36.293 36.293 0 0 1 60.4 19.55 Q 62.981 26.052 63 34.673 A 58.013 58.013 0 0 1 63 34.8 Q 63 43.3 60.4 49.85 A 33.84 33.84 0 0 1 56.89 56.523 A 28.118 28.118 0 0 1 53.35 60.75 Q 48.9 65.1 43.25 67.35 Q 37.6 69.6 31.5 69.6 Z M 237.5 67.8 L 211.6 67.8 L 211.6 66.8 L 213.1 66.4 A 7.457 7.457 0 0 0 214.203 65.979 Q 214.766 65.707 215.178 65.362 A 3.221 3.221 0 0 0 215.85 64.6 Q 216.501 63.56 216.587 61.993 A 8.947 8.947 0 0 0 216.6 61.5 L 216.6 30.2 Q 216.6 28 215.85 26.95 Q 215.306 26.188 214.105 25.769 A 7.532 7.532 0 0 0 213.1 25.5 L 211.6 25.1 L 211.6 24.1 L 228.8 18.3 L 229.8 19.3 L 230.7 27.9 L 230.7 28.7 Q 232.1 25.9 234.35 23.55 Q 236.6 21.2 239.35 19.7 A 12.852 12.852 0 0 1 242.067 18.581 A 10.191 10.191 0 0 1 244.8 18.2 Q 247.71 18.2 249.565 19.431 A 6.039 6.039 0 0 1 250.6 20.3 A 7.183 7.183 0 0 1 252.565 24.769 A 9.584 9.584 0 0 1 252.6 25.6 A 9.506 9.506 0 0 1 252.38 27.71 Q 252.044 29.188 251.193 30.258 A 5.737 5.737 0 0 1 250.65 30.85 Q 248.7 32.7 246 32.7 A 8.131 8.131 0 0 1 240.808 30.804 Q 239.687 29.907 238.666 28.586 A 16.556 16.556 0 0 1 238.6 28.5 L 238.4 28.3 Q 237.4 26.9 236.1 26.75 A 2.177 2.177 0 0 0 235.851 26.736 Q 234.858 26.736 233.985 27.667 A 5.055 5.055 0 0 0 233.7 28 Q 232.7 28.9 232.05 30.15 Q 231.4 31.4 230.8 33 L 230.8 60.9 A 6.874 6.874 0 0 0 231.044 62.801 Q 231.665 64.961 233.871 65.762 A 6.456 6.456 0 0 0 234.3 65.9 L 237.5 66.8 L 237.5 67.8 Z M 130.3 55.9 L 130.3 21.7 L 123.4 21.7 L 123.4 20.7 L 125.8 20.3 A 22.338 22.338 0 0 0 128.604 19.481 A 16.447 16.447 0 0 0 131.15 18.3 A 19.328 19.328 0 0 0 133.666 16.553 A 25.417 25.417 0 0 0 135.6 14.8 L 143.8 5.7 L 144.8 5.7 L 144.5 19.7 L 155.7 19.7 L 155.7 21.7 L 144.4 21.7 L 144.4 57.7 Q 144.4 59.983 145.06 61.543 A 5.491 5.491 0 0 0 145.95 63 Q 147.5 64.8 149.9 64.8 A 7.123 7.123 0 0 0 152.048 64.486 A 6.212 6.212 0 0 0 153.6 63.75 Q 155.1 62.766 156.6 61.122 A 22.778 22.778 0 0 0 156.8 60.9 L 157.8 61.9 Q 155.8 65.3 152.3 67.3 A 14.662 14.662 0 0 1 147.888 68.917 Q 145.988 69.3 143.8 69.3 Q 139.015 69.3 135.823 67.511 A 10.878 10.878 0 0 1 133.85 66.1 Q 131.015 63.545 130.444 58.566 A 23.425 23.425 0 0 1 130.3 55.9 Z M 31.5 67.5 A 16.74 16.74 0 0 0 35.33 67.085 A 11.668 11.668 0 0 0 40.4 64.55 Q 43.8 61.6 45.35 54.45 A 54.603 54.603 0 0 0 46.168 49.459 Q 46.9 43.394 46.9 34.8 Q 46.9 23.114 45.567 16.116 A 43.161 43.161 0 0 0 45.35 15.05 A 31.911 31.911 0 0 0 44.332 11.36 Q 42.91 7.259 40.613 5.141 A 9.378 9.378 0 0 0 40.4 4.95 A 11.742 11.742 0 0 0 35.071 2.357 A 16.972 16.972 0 0 0 31.5 2 A 16.14 16.14 0 0 0 27.587 2.45 A 11.63 11.63 0 0 0 22.7 4.95 Q 19.3 7.9 17.75 15.05 Q 16.2 22.2 16.2 34.8 Q 16.2 46.394 17.534 53.385 A 43.445 43.445 0 0 0 17.75 54.45 A 31.911 31.911 0 0 0 18.769 58.14 Q 20.191 62.241 22.487 64.359 A 9.378 9.378 0 0 0 22.7 64.55 A 11.808 11.808 0 0 0 28.283 67.205 A 16.73 16.73 0 0 0 31.5 67.5 Z M 86.1 24.5 L 86.1 64.8 Q 89.9 66.4 94.3 66.4 A 8.231 8.231 0 0 0 100.862 63.226 A 13.63 13.63 0 0 0 102.25 61.2 A 16.944 16.944 0 0 0 103.742 57.504 Q 104.865 53.579 105.123 47.629 A 86.185 86.185 0 0 0 105.2 43.9 Q 105.2 34.592 103.543 29.574 A 14.085 14.085 0 0 0 102.4 26.95 A 10.711 10.711 0 0 0 100.18 24.189 Q 97.779 22.1 94.3 22.1 Q 90.6 22.1 86.1 24.5 Z M 176.3 40.7 L 193.4 40.7 A 95.399 95.399 0 0 0 193.618 37.89 Q 194.159 29.157 192.6 25 A 8.395 8.395 0 0 0 191.197 22.521 Q 189.582 20.599 186.872 20.269 A 9.684 9.684 0 0 0 185.7 20.2 A 7.992 7.992 0 0 0 182.974 20.651 A 7.115 7.115 0 0 0 180.75 21.95 A 7.05 7.05 0 0 0 179.407 23.535 Q 178.403 25.108 177.702 27.59 A 25.972 25.972 0 0 0 177.55 28.15 A 30.137 30.137 0 0 0 176.934 31.288 Q 176.449 34.591 176.33 39.168 A 112.215 112.215 0 0 0 176.3 40.7 Z" vector-effect="non-scaling-stroke"/></g></svg>